<svg xmlns="http://www.w3.org/2000/svg" width="34.875" height="34.875" viewBox="0 0 34.875 34.875">
    <path fill="#95969BFF"
          d="M18,.563a17.438,17.438,0,1,0,9.521,32.047,1.69,1.69,0,0,0,.39-2.487l-.716-.874a1.683,1.683,0,0,0-2.206-.361A12.938,12.938,0,1,1,18,5.063c7.041,0,12.938,4.051,12.938,11.25,0,2.727-1.483,5.607-4.09,5.885-1.22-.032-1.189-.9-.948-2.111l1.648-8.516a1.687,1.687,0,0,0-1.657-2.008H22.728a.95.95,0,0,0-.944.843v.006a5.407,5.407,0,0,0-4.217-1.531c-5.244,0-9.691,4.376-9.691,10.65,0,4.592,2.586,7.444,6.75,7.444a7.114,7.114,0,0,0,5.273-2.7c.67,2.4,2.856,2.4,4.972,2.4,7.658,0,10.568-5.035,10.568-10.365C35.438,6.726,27.7.563,18,.563ZM16.476,21.968c-1.564,0-2.536-1.1-2.536-2.867,0-3.164,2.164-5.114,4.122-5.114,1.567,0,2.5,1.072,2.5,2.867C20.565,20.022,18.183,21.968,16.476,21.968Z"
          transform="translate(-0.563 -0.563)"/>
</svg>